<?xml version="1.0" encoding="UTF-8" standalone="no"?>
<!DOCTYPE svg PUBLIC "-//W3C//DTD SVG 1.1//EN" "http://www.w3.org/Graphics/SVG/1.1/DTD/svg11.dtd">
<svg width="100%" height="100%" viewBox="0 0 1763 819" version="1.1" xmlns="http://www.w3.org/2000/svg" xmlns:xlink="http://www.w3.org/1999/xlink" xml:space="preserve" xmlns:serif="http://www.serif.com/" style="fill-rule:evenodd;clip-rule:evenodd;stroke-linejoin:round;stroke-miterlimit:2;">
    <g transform="matrix(0.623679,0,0,0.999838,-117.573,-3446.48)">
        <rect x="628.781" y="3447.05" width="2386.02" height="818.584" style="fill:rgb(68,175,228);"/>
    </g>
    <g transform="matrix(0.735982,0,0,1.47912,-224.844,-4170.48)">
        <path d="M1127.84,2912.2C1186.27,2912.2 1228.56,2918.96 1254.71,2932.48C1280.87,2946 1293.95,2966.45 1293.95,2993.83L1293.95,3006.51C1293.95,3024.76 1288.17,3039.81 1276.62,3051.64C1265.07,3063.47 1246.73,3072.26 1221.59,3078.01C1252.16,3083.75 1273.74,3093.13 1286.3,3106.15C1298.87,3119.16 1305.15,3135.13 1305.15,3154.06L1305.15,3182.97C1305.15,3210.35 1290.89,3231.22 1262.36,3245.59C1233.82,3259.95 1191.36,3267.14 1134.97,3267.14L958.679,3267.14L958.679,2912.2L1127.84,2912.2ZM1070.78,3107.41L1070.78,3216.43L1134.97,3216.43C1154,3216.43 1168.43,3213.9 1178.28,3208.83C1188.13,3203.76 1193.06,3194.63 1193.06,3181.45L1193.06,3150.51C1193.06,3133.95 1187.45,3122.63 1176.25,3116.54C1165.04,3110.46 1146.52,3107.41 1120.71,3107.41L1070.78,3107.41ZM1070.78,2962.9L1070.78,3056.71L1114.59,3056.71C1135.65,3056.71 1152.13,3054.01 1164.02,3048.6C1175.91,3043.19 1181.85,3033.39 1181.85,3019.19L1181.85,2999.41C1181.85,2986.57 1177.27,2977.27 1168.09,2971.52C1158.92,2965.78 1144.49,2962.9 1124.78,2962.9L1070.78,2962.9Z" style="fill:white;fill-rule:nonzero;"/>
        <path d="M1484.51,3061.78L1638.38,3061.78L1638.38,3112.49L1484.51,3112.49L1484.51,3216.43L1678.13,3216.43L1678.13,3267.14L1372.41,3267.14L1372.41,2912.2L1678.13,2912.2L1678.13,2962.9L1484.51,2962.9L1484.51,3061.78Z" style="fill:white;fill-rule:nonzero;"/>
        <path d="M1714.81,2912.2L2061.29,2912.2L2061.29,2962.9L1944.1,2962.9L1944.1,3267.14L1832,3267.14L1832,2962.9L1714.81,2962.9L1714.81,2912.2Z" style="fill:white;fill-rule:nonzero;"/>
        <path d="M2434.26,3267.14L2321.14,3267.14L2301.78,3202.74L2164.21,3202.74L2144.85,3267.14L2041.93,3267.14L2156.06,2912.2L2320.12,2912.2L2434.26,3267.14ZM2178.48,3154.57L2286.5,3154.57L2232.49,2975.07L2178.48,3154.57Z" style="fill:white;fill-rule:nonzero;"/>
    </g>
    <g transform="matrix(-7.0054e-06,-1.08987,0.46636,-2.99764e-06,-1799.09,2155.82)">
        <path d="M1978.04,4448.72L1227.05,4448.72L1414.8,3857.77L1790.29,3857.77L1978.04,4448.72Z" style="fill:rgb(68,175,228);"/>
    </g>
    <g transform="matrix(1.69712,0,0,1.67181,-691.254,-3662.85)">
        <circle cx="525.937" cy="2435.75" r="57.271" style="fill:white;"/>
    </g>
</svg>
