<svg width="20" height="20" viewBox="0 0 20 20" fill="none" xmlns="http://www.w3.org/2000/svg">
<path d="M10.155 12.127C9.64082 12.127 9.34082 12.6161 9.34082 13.2711C9.34082 13.9303 9.64999 14.3961 10.16 14.3961C10.6742 14.3961 10.9692 13.9061 10.9692 13.2511C10.9692 12.6461 10.6792 12.127 10.155 12.127Z" fill="#003A8C"/>
<path d="M11.6663 1.66699H4.99967C4.55765 1.66699 4.13372 1.84259 3.82116 2.15515C3.5086 2.46771 3.33301 2.89163 3.33301 3.33366V16.667C3.33301 17.109 3.5086 17.5329 3.82116 17.8455C4.13372 18.1581 4.55765 18.3337 4.99967 18.3337H14.9997C15.4417 18.3337 15.8656 18.1581 16.1782 17.8455C16.4907 17.5329 16.6663 17.109 16.6663 16.667V6.66699L11.6663 1.66699ZM7.62884 14.5453C7.27384 14.8403 6.73467 14.9795 6.07551 14.9795C5.67967 14.9795 5.40051 14.9545 5.21051 14.9295V11.6203C5.55132 11.5712 5.89536 11.5481 6.23967 11.5512C6.87967 11.5512 7.29467 11.6662 7.61884 11.9112C7.96884 12.1712 8.18884 12.5862 8.18884 13.1795C8.18884 13.8253 7.95384 14.2703 7.62884 14.5453ZM10.1205 15.0003C9.12051 15.0003 8.53634 14.2453 8.53634 13.2853C8.53634 12.2762 9.18051 11.522 10.1755 11.522C11.2097 11.522 11.7747 12.2962 11.7747 13.2262C11.7738 14.3303 11.1038 15.0003 10.1205 15.0003ZM13.9997 14.3653C14.2288 14.3653 14.4838 14.3145 14.6347 14.2553L14.7497 14.8495C14.6097 14.9195 14.2947 14.9945 13.8855 14.9945C12.7213 14.9945 12.1213 14.2703 12.1213 13.3103C12.1213 12.1612 12.9405 11.522 13.9605 11.522C14.3555 11.522 14.6547 11.602 14.7897 11.672L14.6347 12.277C14.4318 12.1931 14.2142 12.1506 13.9947 12.152C13.3897 12.152 12.9197 12.517 12.9197 13.267C12.9197 13.9412 13.3197 14.3653 13.9997 14.3653ZM11.6663 7.50033H10.833V3.33366L14.9997 7.50033H11.6663Z" fill="#003A8C"/>
<path d="M6.31975 12.1357C6.15059 12.1357 6.04059 12.1507 5.97559 12.1657V14.3699C6.04059 14.3849 6.14559 14.3849 6.23975 14.3849C6.92975 14.3899 7.37892 14.0107 7.37892 13.2057C7.38392 12.5057 6.97475 12.1357 6.31975 12.1357Z" fill="#003A8C"/>
</svg>
