<svg width="17" height="15" viewBox="0 0 17 15" fill="none" xmlns="http://www.w3.org/2000/svg">
<path d="M16.3333 13.1667H2V0.166667C2 0.075 1.925 0 1.83333 0H0.666667C0.575 0 0.5 0.075 0.5 0.166667V14.5C0.5 14.5917 0.575 14.6667 0.666667 14.6667H16.3333C16.425 14.6667 16.5 14.5917 16.5 14.5V13.3333C16.5 13.2417 16.425 13.1667 16.3333 13.1667ZM3.5 11.8333H14.6667C14.7583 11.8333 14.8333 11.7583 14.8333 11.6667V2.58333C14.8333 2.43333 14.6521 2.36042 14.5479 2.46458L10.1667 6.84583L7.55417 4.2625C7.52284 4.23148 7.48054 4.21408 7.43646 4.21408C7.39238 4.21408 7.35007 4.23148 7.31875 4.2625L3.38125 8.2125C3.36596 8.22782 3.35385 8.24602 3.34562 8.26604C3.3374 8.28607 3.33322 8.30752 3.33333 8.32917V11.6667C3.33333 11.7583 3.40833 11.8333 3.5 11.8333Z" fill="#003A8C"/>
</svg>
