<svg width="15" height="19" viewBox="0 0 15 19" fill="none" xmlns="http://www.w3.org/2000/svg">
<path d="M11.3041 4.07168C10.0195 2.5998 7.92757 2.5998 6.64432 4.07168L3.08503 8.14668C3.06185 8.17324 3.04957 8.20918 3.04957 8.24668C3.04957 8.28418 3.06185 8.32012 3.08503 8.34668L3.58824 8.92324C3.61124 8.94948 3.64238 8.96421 3.67484 8.96421C3.70729 8.96421 3.73843 8.94948 3.76143 8.92324L7.32072 4.84824C7.76256 4.34199 8.35032 4.06387 8.9749 4.06387C9.59948 4.06387 10.1872 4.34199 10.6277 4.84824C11.0696 5.35449 11.3123 6.02793 11.3123 6.74199C11.3123 7.45762 11.0696 8.12949 10.6277 8.63574L7.00025 12.7904L6.41249 13.4639C5.86291 14.0936 4.96968 14.0936 4.4201 13.4639C4.15418 13.1592 4.00826 12.7545 4.00826 12.3232C4.00826 11.892 4.15418 11.4873 4.4201 11.1826L8.01894 7.06074C8.11031 6.95762 8.23032 6.8998 8.35851 6.8998H8.35987C8.48806 6.8998 8.6067 6.95762 8.69671 7.06074C8.78807 7.16543 8.83717 7.30293 8.83717 7.4498C8.83717 7.59512 8.78671 7.73262 8.69671 7.83574L5.75518 11.2029C5.732 11.2295 5.71972 11.2654 5.71972 11.3029C5.71972 11.3404 5.732 11.3764 5.75518 11.4029L6.25839 11.9795C6.28139 12.0057 6.31253 12.0205 6.34498 12.0205C6.37744 12.0205 6.40858 12.0057 6.43158 11.9795L9.37174 8.61074C9.64312 8.2998 9.79177 7.8873 9.79177 7.44824C9.79177 7.00918 9.64176 6.59512 9.37174 6.28574C8.81126 5.64355 7.9003 5.64512 7.33981 6.28574L6.9907 6.6873L3.74234 10.4076C3.52187 10.6587 3.34711 10.9575 3.22819 11.2866C3.10927 11.6157 3.04855 11.9686 3.04957 12.3248C3.04957 13.0482 3.29641 13.7279 3.74234 14.2389C4.20464 14.767 4.81013 15.0311 5.41561 15.0311C6.0211 15.0311 6.62659 14.767 7.08753 14.2389L11.3041 9.41074C11.9246 8.69824 12.2683 7.7498 12.2683 6.74199C12.2696 5.73262 11.926 4.78418 11.3041 4.07168Z" fill="black"/>
</svg>
