<svg width="20" height="20" viewBox="0 0 20 20" fill="none" xmlns="http://www.w3.org/2000/svg">
<path d="M6.8891 12.2334C6.73577 12.2334 6.63243 12.2484 6.5791 12.2634V13.2451C6.64243 13.2601 6.7216 13.2642 6.83077 13.2642C7.22993 13.2642 7.47577 13.0626 7.47577 12.7217C7.47577 12.4167 7.2641 12.2334 6.8891 12.2334ZM9.79493 12.2434C9.62827 12.2434 9.51994 12.2584 9.45577 12.2734V14.4484C9.51994 14.4634 9.62327 14.4634 9.7166 14.4634C10.3974 14.4684 10.8408 14.0934 10.8408 13.3001C10.8458 12.6084 10.4416 12.2434 9.79493 12.2434Z" fill="#003A8C"/>
<path d="M11.6663 1.66699H4.99967C4.55765 1.66699 4.13372 1.84259 3.82116 2.15515C3.5086 2.46771 3.33301 2.89163 3.33301 3.33366V16.667C3.33301 17.109 3.5086 17.5329 3.82116 17.8455C4.13372 18.1581 4.55765 18.3337 4.99967 18.3337H14.9997C15.4417 18.3337 15.8656 18.1581 16.1782 17.8455C16.4907 17.5329 16.6663 17.109 16.6663 16.667V6.66699L11.6663 1.66699ZM7.91467 13.492C7.65717 13.7337 7.27717 13.842 6.83467 13.842C6.74887 13.8429 6.66311 13.8379 6.57801 13.827V15.0153H5.83301V11.7353C6.16922 11.6852 6.50894 11.6623 6.84884 11.667C7.31301 11.667 7.64301 11.7553 7.86551 11.9328C8.07717 12.1012 8.22051 12.377 8.22051 12.702C8.21967 13.0287 8.11134 13.3045 7.91467 13.492ZM11.0872 14.6212C10.7372 14.912 10.2047 15.0503 9.55384 15.0503C9.16384 15.0503 8.88801 15.0253 8.70051 15.0003V11.7362C9.03684 11.6871 9.37646 11.6639 9.71634 11.667C10.3472 11.667 10.7572 11.7803 11.0772 12.022C11.423 12.2787 11.6397 12.6878 11.6397 13.2753C11.6397 13.9112 11.4072 14.3503 11.0872 14.6212ZM14.1663 12.3087H12.8897V13.0678H14.083V13.6795H12.8897V15.0162H12.1347V11.692H14.1663V12.3087ZM11.6663 7.50033H10.833V3.33366L14.9997 7.50033H11.6663Z" fill="#003A8C"/>
</svg>
