<svg width="17" height="16" viewBox="0 0 17 16" fill="none" xmlns="http://www.w3.org/2000/svg">
<path d="M10.9759 5.11836L11.0899 5.35871L11.3529 5.39847L16.1811 6.12819C16.1813 6.12821 16.1814 6.12824 16.1815 6.12826C16.2311 6.13619 16.2892 6.19321 16.2765 6.27878L16.2765 6.27878L16.2757 6.28411C16.2713 6.31608 16.2572 6.34362 16.2375 6.36372C16.2375 6.36381 16.2374 6.3639 16.2373 6.36399L12.7437 9.90612L12.5649 10.0874L12.6064 10.3386L13.432 15.3416L13.432 15.342C13.447 15.4321 13.3868 15.4897 13.3406 15.498L13.3398 15.4982C13.3205 15.5017 13.3006 15.4982 13.2848 15.4894L13.2825 15.4882L8.9625 13.1261L8.72263 12.995L8.48277 13.1261L4.16274 15.4882L4.16196 15.4886C4.14551 15.4976 4.12856 15.501 4.11259 15.4998C4.09657 15.4986 4.07934 15.4927 4.06304 15.4804C4.04654 15.4679 4.03126 15.4489 4.02148 15.4239C4.01165 15.3987 4.00854 15.3702 4.01319 15.3423L4.01329 15.3416L4.83887 10.3386L4.88033 10.0874L4.70153 9.90612L1.20709 6.36308L1.20706 6.36304C1.18408 6.33976 1.16754 6.30388 1.16701 6.2622C1.16648 6.22086 1.18185 6.18452 1.20421 6.16027C1.22337 6.14021 1.24387 6.13121 1.26128 6.12863L1.26252 6.12844L6.09235 5.39847L6.35538 5.35871L6.46938 5.11836L8.62731 0.568791C8.62743 0.56853 8.62756 0.56827 8.62769 0.56801C8.66202 0.497523 8.72601 0.490388 8.76439 0.510095L8.76498 0.510397C8.7841 0.52018 8.8036 0.538458 8.81662 0.565986L8.81682 0.566412L10.9759 5.11836Z" fill="white" stroke="#D9D9D9"/>
</svg>
