<svg width="16" height="16" viewBox="0 0 16 16" fill="none" xmlns="http://www.w3.org/2000/svg">
<path d="M14.1887 6.51739L10.2215 5.94083L8.4481 2.34551C8.39966 2.24708 8.31998 2.16739 8.22154 2.11895C7.97466 1.99708 7.67466 2.09864 7.55123 2.34551L5.77779 5.94083L1.8106 6.51739C1.70123 6.53301 1.60123 6.58458 1.52466 6.6627C1.4321 6.75784 1.3811 6.88583 1.38286 7.01855C1.38461 7.15127 1.43899 7.27786 1.53404 7.37051L4.40435 10.169L3.72623 14.1205C3.71032 14.2124 3.7205 14.307 3.75559 14.3934C3.79068 14.4798 3.84929 14.5547 3.92477 14.6095C4.00025 14.6644 4.08958 14.6969 4.18263 14.7036C4.27568 14.7102 4.36873 14.6906 4.45123 14.6471L7.99966 12.7815L11.5481 14.6471C11.645 14.6986 11.7575 14.7158 11.8653 14.6971C12.1372 14.6502 12.32 14.3924 12.2731 14.1205L11.595 10.169L14.4653 7.37051C14.5434 7.29395 14.595 7.19395 14.6106 7.08458C14.6528 6.81114 14.4622 6.55801 14.1887 6.51739Z" fill="#FAAD14"/>
</svg>
